<svg xmlns="http://www.w3.org/2000/svg" xmlns:svg="http://www.w3.org/2000/svg" xmlns:xlink="http://www.w3.org/1999/xlink" width="500" height="270"><defs><g id="a"><g transform="translate(102 160)"><svg width="128" height="128"><svg viewBox="0 0 500 500"><path d="M104 55c-8 10-25 19-26 23 7 0 4-4 13-5 5-1 3 0 12-7 17-13 66-43 80-46-1 30-10 63-14 93-4 25-3 10-6 20l-10 57-1 6-2 6c-5-7-19-74-22-82l-10-24c-2 0-35 12-43 13-10 1-2 0-6-1s-42 10-53 10l76-56 12-7zM0 127c10-1 16-5 27-6 12 0 52-10 56-10 10 2 19 2 28-2l-2-5 7 1c3 3 17 68 20 79l9 24 7 1c3-9 2-6 5-10l1-1 11-68c7-4 7 7 9-28 2-25 20-93 8-102-13 7-33 22-49 28-16 7-92 57-108 68-8 6-15 16-20 21-5 4-8 4-10 10zm65-29l32-15c5-3 6-3 6-9L73 91c-5 3-7 3-8 7zm85 32c0-16 2-27-5-29-3 3 0 9 0 16 0 8-2 12 5 13zm-15-74c5 0 15-7 20-9 6-3 18-6 14-15-3 2-5 6-17 13l-17 11zm21 59c4-1 4-13 4-18-1-7 0-3-4-4v22z"/></svg></svg></g></g><g id="b"><g transform="rotate(-9 753 -1035)"><svg width="165.7" height="165.7" viewBox="0 0 166 166"><svg viewBox="0 0 500 500"><path d="M118 159c10-8 19-15 32-21-4-2-17 9-21 11-3 2-3 4-7 5l5-7c10-9 2-4 10-11l6-5c3 2 8 3 14 3 18 0 12-3 22 11l8 9 2-2-1-2-1-1c4 2 6 8 6 11 2 2 3 2 4 5h2c-1 2-1 1 1 2l12 1h10c20 1 40 3 60 1 4 0 7 0 8-3 6 1 6 0 10-1 0 3 0 3 2 5 2-2 3-10 3-14l1-5c2 2 1 4 1 7 1-11 2-27 0-38v-9c0-4-2-3-2-9 0-5 1-13-2-17l-1 1s0 2-1 1l-1 1v-6 1l3 1c2-6-5-5-5-12-3-1-2 1-4-2l-7-10c-8-13-19-24-31-34l-3-1c-1 2 0 2 2 3l16 15 3 3 2 3h-2l-2-1c-4-4-6-4-8-8h1c-5-2-1 0-4-3l-10-9c-1-1-1-4-5-3 0-4-5-6-7-9l6 4 6 5 3-1-12-9c-1-1-8-15-14-16a21 21 0 010 1c4 3 8 7 9 11-3 0-5-3-7-5l-2-2c-6-1-17 4-18 7-3 4-8 13-3 17 9 7 13-4 25 13 3 4 5 4 2 8l-8-8c-3-4-3-8-6-9-1 2 4 11 6 15 2 3 3 3 6 5 6 5 10 12 15 19 4 4 7 8 9 14l-28-2h-28l-59 2-1-2c-2 1-4 0-5 2h25c8 0 69-2 75 1h-26l-12 1h-34l-24 1-13-1H89l-24-1-5-1-5 1H42l3-5 1 1 1 1c-3-6 7-15 10-21 5-7 9-14 15-20 17-19 13-6 33-10 4-2 11-3 10-8-2 3-1 4-7 5 0-8-3-13-7-17s-8-6-18-7l1-3-5 3c-3 2-5 2-6 4l-2 2-17 14L9 68l7-8 6-4-11 14-5 10-6 8 1 3c2 3 0 10 0 14v-1l2-2v29l1 9c0 4 0 3-3 5l2 11c0 4-2 3-1 7v1c5-1 45 1 51 2l12 3 26 1c7-1 6-2 10-3v4l1-2c1-2 2-3 5-3l7-2h-6l4-5 2 4 4-4zm55-30c-6 2-6 2-14 1l-14-1c2-5 14-8 14-13-4 1-9 6-12 8l-14 9c-2 1-14 18-20 23l-5 5c-3 3-2 3-8 4l-23 1-21-2-22-1c1-3 4-3 4-5h-1l-6 5-22-2 1-9v-32c2 2 1 7 3 9l1-8-1 1v1L9 99v-9c1-3 23-2 27-2l1 2 1 1c3-1 1 0 3-3l36 2H55c-3 0-4 0-5 2 15 1 32-2 47-2 12 0 24-1 35 2 4 1 6 3 8 2-1-3-6-3-10-4l2-1h47l-2 3c-7 4-15 10-23 13 9-2 19-10 26-14 7-3 8-2 20-2h22c-3 2-4 1-6 4 3 1 5-2 8-3 7-3 17-2 25-2 7 0 7-1 11 2l2-2 37 1 3-1 1-1-3 8-3-3c-1 1 2 5 3 11 2 16-1 29-2 44-6 1-6 2-11 0 0-6 6-4 4-9-3 1-8 7-6 9 2 5 10 2 14 2v7l1 6-1 2c-5 2-9 2-11-2l4-1 3 1c-1 0-8-4-9-3-2 2-2 3 0 5l3 4h-38l-5-2h12c-12-1-54 3-60-7-3-4-7-10-8-16l-1-7c-2-3-1-1-3-2-1 3 0 7 1 9h-1l-4-3c-2-3-3-4-3-7-1-2-3-3-6-4zm-20-24v1s3-2 0-1zM8 80l3-4v-2l2-2 4 10v4H5c3-5 7-5 8-8l-5 2zm5-3c-1 0 0 0 0 0zm-1-2zm201-51c-1-5-5-6 1-12 2-3 5-4 12-4l5 8 3 1-3-3-2-4c4 2 1 0 4 4l1 1 8 8 20 19c30 29 15 13 13 36l3-4 1-5 1 2v1l-1 2-1 4c2-1 1-1 2-3l-1 6c0 5 1 4-4 4v-7l-3 7h-10l-21-35-3-7c-2-5-7-9-10-12l4-1c2-1 2 0 3-2h-9c-5 1-2 0-7-1-8 0-11 2-10-6l4 3zm21-6c0 1-1-2 0 0zM32 55l3-2 14-16 8-10 5-4 4-4 6-4c1-1 7-7 12-6h6c8 1 16 11 15 20l-20-2-6-1c-7 0-22 22-26 27-2 4-7 14-10 16-3-4-1-11-4-13v1l1 5c4 14-1 15 1 18l1-2c1-4 0-2 2-3 0 4-2 9-6 11-2-1-1 1-2-3-1-3-1-17-5-21 2 6 4 17 4 24l-12-1 1-6v1l3 2 2 2c2-3 2-5 1-10l-1-4-1-5c0 7 3 11 1 17l-2-2c-2-2-5-12-4-14l2-3c-2 1-5 2-5 4 0 1 4 5 2 18-2-1-3 0-4-5-3-13 1-1 2-12l-5 3c0-5 0-2 4-6l1-1v-1l4-5c8-11 11-13 20-22l10-9 1-1 1 1-12 13c-3 3-11 12-12 15zm0 0l-7 8 2-1c2-1 4-4 5-7zm251 9c4 1 11 12 12 16 1 5 1 2 3 6h-12c-6 0-5-1-4-5l1-9v-8zm-45-9l-4-6c4 2 6 4 7 8-3-1-1 1-3-2zM45 76c-2-3-1-4 1-6 4-4 3-9 9-16 5-6 10-13 17-17l-7 10-3 5-4 4c-5 5-8 15-13 20zm22-37l3-4c4-6 6-8 12-7l-2 2-13 9zm-2 108l4-1c3-1 4 0 5 1 0 0-1 3-7 1l-2-1zm-7 0c4-2 6-2 5 1l-5-1zm54-23c-4 11-3 8-12 17-3 3-4 6-11 6-5 0-3 0-6-2l-5-1-1-1c2-2 16-21 24-29l8-9c8 0 13 0 18 3l-13 16h-2zm-60 21c0-4 22-27 28-34l4-6h7c0 4-19 25-25 34-1 2-1 5-4 5l-10 1zm-3 0H37c1-4 30-40 31-40h12c0 5-12 17-15 20l-14 18c-2 3 1 1-2 2zm27-1c-5 0-7 1-10-1 2-5 21-30 27-35 1-2 0-2 3-3h11c-3 6-29 29-31 39zm-32-38c8-1 1-2 18-2-1 3-1 4-5 5l4 2-19 24a78 78 0 00-3 5l-4 4c-10 0-4-6-4-18 0-8 2-16 1-23h11v1l1 2zm42-4c0-1 6-2 8 0-1 2 1 1-4 1l-4-1zm-74-5l15-1-1 13c1 8 2 2 0 10v21l-4 2 3 2 6 3 3 2c3-3 4-2 13-1l13 3c12 2 21-2 29-1l1 1v3c3-3 1-2 6-2 4 0 6-1 7-3h-1l-3-1c3-3 5-9 9-12 7-5 12-14 18-21 2-1 12-12 7-11h-2c-4 1-5-1-15-1l-20-1 3-2h16c-7-2-19 0-27 0l-2-1-14 2-23 1-12-1c-6 0-5-1-6-5h42l12-1h2-59l-16 2z"/><path d="M222 150c1-7 10-17 14-24l14-23h14c-2 10-28 35-27 43 2-1 2-4 3-6 4-7 20-25 26-36l11 1c0 8-7 37-4 42v-3c0-7 2-15 4-22l1 2-2 12-2 15-7-1c-5-1 4-2-17-2l-1-1v-1l-8 2c1-5 10-14 13-18 3-2 14-13 14-16l-19 21c-6 7-5 6-8 12-3 4-13 3-19 3zm-9-7c7-4-1-2 5-9l23-31h5c1 7-23 37-26 48-6-1-7-2-8-7l1-1zm-16-39c-4-1-3 1-4-2l44 1c0 4-8 15-11 18l-6 9-7 8c-3-8-17-24-20-32l4-2zm69-1l6-2c6-1 5 2 5 2-2 1-9 2-11 0zm-75-5l-3 4 2 7c-1 3-2 0 2 5 10 13 8 18 16 31 3 6 0 2 0 6 8 3 5 4 17 3 4-1 14-4 18-3 5 1 5 3 18 2 18-2 11 1 14 6l1-5 4-2-4-1c0-4 0-3 2-5l1-6c2-7 4-28 4-35l3-2c-3-11-47-3-70-3h-13l-12-2zm-37 30h2l6-4c-1 0 2 1 0 0h-2l8-6c-3 0-15 7-14 10zm112-48c1-7 3-15 6-21 3 3 1 2 2 6 2-2-1-7-2-8-4 2-6 19-6 23zM11 160c5-1 2-1 5-4l5-4c-4 1-9 5-10 8zm10 2c3-1 3-2 5-4s4-2 4-5c-3 0-3 2-5 4s-4 2-4 5zm211-66c4 2 3 0 5-2l4-4c-3 0-3 2-5 3l-4 3zm-66 32c1 0 8-4 6-7-3 1 0 1-3 4-2 1-3 1-3 3zm58-33l8-4c-4 0-7 2-8 4zm27 0l5-4-2-1-3 5z"/></svg></svg></g></g><g id="c"><g transform="rotate(1 -1578 17418)"><svg width="204.1" height="204.1" viewBox="0 0 204 204"><svg viewBox="0 0 500 500"><path d="M14 27l20-1c18 0 33 5 58 4l-3 28v28l4 1c3-2 5-7 7-10l5-5c10-9 11 12 19 13 4-6 3-18 3-25 0-9 2-17 3-26 16-2 24 1 39 1 7 33-8 65-8 92 3-1 3-1 3-7 0-5 2-17 4-22l-1 30v15l-2 14h-21c-4 0-14-3-17-2 2 6 15 2 20 5-16 0-98 3-106 2l-25-3c-6 0-6-1-7-2 3-4 2-26 2-32l1-24-1-8 2-16 1-50zm78 49c-1-11 2-26 3-36l2-18 1-17c5 3 0 1 16 2h8s7-4 6 0c-3 8 0 7-1 21-3 1-2 0-3 2 2 2 2 0 2 4 1 4-4 32-4 39l-2-2c-9-3-5-4-9-9l-10 8-5 4-4 2zm1-51l-56-3-1 1-1 2-25 1v5l1 18c-2-5 0 4-1-1v-3l-3-4c0-4 2-14-2-16-2 2-1 3 0 11 1 10 0 30-1 39s-5 45-2 52c4-3 1-18 3-33l3-35 1 3v22l-1 26c0 12-3 43-2 51 8 5 20 2 32 3 9 2 83-2 103-2 8 0 15 2 22 0l1 1 1 2 2 1c2-2 3-11 3-15 3-9 1-7 1-15a471 471 0 014-70c1-11 3-23 0-27l-1-3c-2-6-14-4-21-5l-23-2c0-7 3-22 2-23-5-9-8-2-16-2-5 0-14-4-20-3-3 6-2 16-3 24zM37 132c20-2 60 1 81 0 8 0 25 4 27-3-5-4-51 0-62 0l-48-1c-4 0-11-1-13 2h5c-2 6 4 3 10 2zm19-39c-5 0-8-2-10 0 3 5 16 1 21 4-5 2-30-3-34 0 1 3 2 3 6 3l7-1c26 0 46 4 72 3 15-1 21 3 26 0-2-5-10-2-15-3l-1-1c-1-1 0 0 0 0h-1l-1-1h-5c-26 1-40-1-65-4zM30 70l10-1 13-1c7 1 18 3 22-1-1-3-11-1-20-2H32l-2 5z"/></svg></svg></g></g><g id="d"><g transform="rotate(-2 2069 -2146)"><svg width="164" height="164"><svg viewBox="0 0 500 500"><path d="M164 158l1 1 2 4 8-7v11c-5 3-5 2-11 2v-11zm15-4v9l-1 3c-1 2 0 2-2 3 1-12-1-14 3-15zm-9 4c1-2 3-7 5-8v4l-5 4zm-4 1c0-6-1-6 2-11l4-3c1-2 2-3 4-3 0 4-5 12-8 15l-2 2zm-1-9c1-3 4-9 6-10l2-2c0 5 1 3-4 8l-4 4zm-20-18l1-17c2 3 1 9 1 13l-2 4zm30 8c-1 0-2 1-2-2l2-4c-1-3-2-1-1-8l2-26 2 4v16l-2 5v1c-1 3 1 11-1 14zm-6-60v-1l2-24 2-27h8c0 4-1 24-3 26l-1 1-1 1v4h-1l-1 1c-1 6 0 16 1 23l-1 23c-1 8-2 16-1 23 0 4-3 8-5 12-2 2-1 3-3 3l1-24c0-3 1-21-2-22v8l1 2-3 1v9h1v23c0 7 1 6-2 11l-2 4c1 3 2 1 4 0v11h-13v-6l1-7 1-32 1-17 1 1v2l1 52c2 6 2 5 3 5l-2-18v-27l1-9-1-19c2 2 1 3 4 3 1-5 1-25-1-29v27c-3-5-1-26-1-33v3l1 2v-1c1-2-2-29 2-35l1 2c2 7-2 57 0 61 3-2 2-3 2-7 0-12 3-51 6-55l1 3v9l-1 12c-1 4-2 23-1 25zm-22-34l1 2 1 6v10l-3-2 1-16zm6 44c2-3 1-26 1-29l-1-14c0-5 0-11 2-13l1 17c1 7 1 39-2 45a6 6 0 000 1l-1 2v-6c0-3-3-16 0-20v17zm31-13c-3-6-1-23-1-29 2 1 1 1 1 5v24zm-21-48h6l-2 7-1 6-1 7c0 3 0 5-2 7V29zm8-5l8-1c-1 2 1 1-2 2h-4l-2-1zm10-2l-12 1-5-1c-3 0-2 1-4 2h-9c-3 4-4 1-6 4l1 1 1 1-1 19v18h2v15c-1 1-1-12-1-13l-1 16v6l-2 38c0 10 1 7 2 11l2 12c0 4 0 8-2 12h-2l-3 1c0 2 1 2 3 3l-2 2c12 7 16 2 24 3h9c-2 2-2 1-2 3h3l1-3c7 0 6 3 7-7l2-31 1-14-1-1V97l-1-59-1-5c-1-6 0-8 11-6 0-3-4-1-11-2l2-2c-3-1-1 1-2-1v-5l1-1c0-2 0-2-2-3-2 2-2 5-2 9zM95 169h3c4 0 2 0 3 1 0 0 1 3-4 1l-2-2zm6-49l1 2 1 3v5l3 36h-4c-2-14-1-31-1-46zm-12 0c1-4 0-4 2-7 1 3 2 2 0 4l-2 3zm4 21v-7l2-12 1-1v-1l1-1c1-2 0-4 2-7v2c1 9-5 43 0 45 1-2-2-12 1-15v23c-4 0-10 0-13-2l1-20v-21l4-5 3-5-3-4c1-1-1-1 2 1 0-11-1-2 2-12l2-4c1 15-3 11-4 18l3-3-5 24c-1 3-2 6 1 7zm-4-42l-1-18h9c0 4-2 6-3 9-2-3-1 1-1-4 0 5-1 10-4 13zm12-16c-2 0-1 0-1-2 2 1 1 0 1 2zm11-5l-4 1-4-2c3 0 3 1 5-1 0-2 0 0-2-2l-4 1 1-3c3-1 3 1 5-1-3-2-8-1-12-1s-10-2-12-1c1 4 13 3 17 3-1 2 0 4-8 2l-9-2v3l-2 1-1 15-1 8v7l-1 6v14h-1l-1 2 2-1c2 3 2 21 1 26l-1 8-3 1 1 3c2 3-1 2 4 4h1l1 2 1 1 2-2 1-1c9 4 13 7 20 4l2-2c-1 0-4 2-6 1l-2-1c1-2 0-2 4-1l3-1-2-3-2-18-1-34-1-8v-9l-1-1c-1-16 2-15 10-16l-2 17-1 36-2 16c3-2 0-2 3-5l1 19h-2c3 6 2 7 4 7v-6l2-1-1-22v-24l1-23V70l1 1 1 2-2-5c-1-3 0-2-2-3l-1 13zM48 64l2-2c5-3 12-9 15-9l-2 3-6 4c-2 1-6 4-9 4zm57-36h-2l2-2 2-2 12-10c0 3-2 3-1 6v9l-2 14c1 3 0 0 1 1 2-2 5-15 6-19l3-9 3-6c1-3 2-2 5-4l3-1-3-3V1l-23 5c-7 1-23-3-26 3l3 3v1c-1 4 9-1 12-1l13-4-9 7v5l-9 6 2 1-2 2v-1l-1-1c-8 6-3 2-6 7L76 44 54 58l-12 7-12 5-15 3c-9 3-14 1-14 4 2 2 4 0 6 1 6 1 10 3 19-1l21-9 2 1c4 2-3-1 1 1 4-5 12-8 18-11l8-4c9-5 28-15 32-22L79 52l-5 3-6 3c-2 1-4 3-7 3l18-13 1-1h1l-2 2c-2 1-2 2-2 3l7-6c-1-1-2 0-3 1 2-3 3-2 6-4l18-15zm2-11l1-3 13-6-6 5-3 1h-3c-1 3 0 2-2 3zm12 12c0-3 0-9 2-11l1-5c0-2 1-3 3-3l-5 17v1l-1 1zM87 9c4-4 13-2 18-2l-3 2-11 3c-4 0-4-3-4-3zM17 163c-2-4-3-3-2-10l1-20 1-10h7v2l-1 8c-2-3 1-5-2-7-1 1-1-1-1 4 2 9 0 16-1 24 0 4 0 7-2 9zm27-40l-2 25 1 25-14 2-7-2c-6 0-8 5-7-9l4 2 2 4 1-2h9l6-1c-9-1-3 1-15-2l3-12-1-2-2 6c-1-12 2-23 5-33h6l-3 10-1 5a307 307 0 012-6l1 5c-1 4-6 24 2 23-1-2-3 1-3-8 0-10 4-22 4-29l9-1zm-19 28c1-1 3-5 2-8l-2 8zM7 121l4 3 1-2-2 22-2 1c3 16 1 12 2 23 2 1 1-1 2 4v3c6 3 21 3 29 2 5-1 7-1 8-4h-4l1-5-1-6 1-11 2-22h1v1l1 1v-7l2-2c-2-2-2 0-3-3 0-2 0-2-2-3v4H20l-4-2v-4c-3-1-2 2-3 4-1 3-4 2-6 3z"/></svg></svg></g></g><g id="e"><g transform="rotate(-12 739 68)"><svg width="269.9" height="269.9" viewBox="0 0 270 270"><svg viewBox="0 0 500 500"><path d="M77 27c2-11 5-12 6-18 3 0 7 5 9 8 2 2 6 5 7 8l-7 1-15 1zm-66 4l1-1v-2c0-16 4-16 4-22h8l2 1c3 1 8-1 13-1h27l13 2c0 8-5 15-5 21 3 1 22 0 26-1l-3 85-5 1H74l-1-2c-14 1-18 1-32-1H31l5 1-5 2c-6 1-14-3-18-3l1-4c0-5-1-4-1-4l-1 2c-1-7 1-11 1-14l-2 3-1 16-3 2 1 2c8-1 13 1 20 1h23l43 2 1 1 4-1 3-72 2-11v-5c0-3 0-4-3-4 1-3-2-6-4-9-5-7-7-6-12-11-2-1-2-2-5-1-5 1-16 0-22-1l-6-1L7 1C5 5 6 2 4 4c1 2 0 1 3 2 0 12 0 3-2 10v1c-2 3-1 2-1 5 1 10-1 9-2 12v13l1 13c1 4 0 27-1 34 0 2-3 17 1 19 1-4-1-12 2-16v12c0 2 0 2 2 2L5 73V58c0-19 2-25 3-40L9 6h4c0 6-4 20-2 25zm6 48c1 3 2 1 6 1h41l10 1h2l1-1c-1-2-10-3-13-3-8 0-24-1-32 1-4 1-12-1-15 1zm11 15l-5 1 2 2c5-3 30 0 39 0 3 0 10 2 10-2l-25-1c-4-1-20-3-21-2v2zM18 56c2 2 28 0 31 1l16 1c5 1 9 3 12 2l1-1-6-1c0-4 0-3-7-3H44c-6-1-23-3-26 1zm4-20l22 1 7 1 16 1c3 0 11 1 13-1l-2-1-3-1h-7c-6 0-46-4-46 0zm71 10c3-1 2-2 2-5 0-2 1-4-1-6-2-1-1 10-1 11zM67 17l1-1c2-4-1-4-1-4-1 1-2 1 0 5zm-51 7l1-7c0-2 0-1-1-1v8zm78 32l1-2-1-3v5z"/></svg></svg></g></g><g id="f"><g transform="translate(162 10)"><svg width="400" height="400"><svg viewBox="0 0 500 500"><path d="M10 66c6 1 10 0 15-1h8c3 0 2 4 1 5-1 2-2-1-3 2 2 2 4-1 4 3-2 3-3 0-3 3 2 1 3 0 2 3-1 4-8 4-9 5l-1 2v2l-2-2c-4-5-6-2-11-5v-3c2-2 2-1 2-3h-3c0-6 1-3 2-6l-3-2 1-2v-1zM3 40v-3l2 6c-2 0-2-1-2-3zm1-10c0-4-1-7 1-12l4-8 3-3c2-1 12-5 15-3l-2 1c-1 0-2 0-2 2 2-2 5-3 8-2 10 2 10 6 12 13v-5l2 3 3 8c0 8-6 16-10 22-3 4-5 6-5 10l-5 2 4-1c0 4 0 4-4 4h-5l9 1h-1l-4 1-17 1v-9l-2-4c-1-9-4-9-4-21zM31 6s1 0 0 0zM9 71c-1 5-3 3 0 8l-1 4c3 3 5 3 9 4 5 1-1 2 7 5 1-1 2-2 2-5 10-2 11-1 10-9l1-5-1-6c0-4-3-2-1-11 2-11 12-16 14-28 1-5-1-13-4-17l-2-1c-3-4-5-5-11-7-11-3-4-3-16 1l-5 2C6 10 2 17 1 25c-1 9 1 12 2 18 0 3 1 3 2 5 2 5 1 6 2 12 1 7-2 9 2 11zm30-43c0-7-3-9-7-12-1-1-1-2-3-2l3 3 3 3 2 4 2 4zM15 78h12c2 0 1 0 1-1-1-1-12 0-13 1zm1-7c0 2 4 0 10 1h2c1 0 1-1-2-1H16zm-6-24c1 0 0-6-2-7l2 7zM30 9h6l1-1c-1 0-6-1-7 1zM9 18l4-7 1-2c-2 1-5 7-5 9zm20 64h-6 6z"/><path d="M29 83l3-1h-1l-2 1zm3-39z"/></svg></svg></g></g><g id="g"><g transform="translate(30 2)"><svg width="400" height="400"><svg viewBox="0 0 500 500"><path d="M33 31c1-2 2-4 0-4l-1 4c0 3-2 7-4 11l-1 3-4 11v-2l-1 5v1l-1-2c-2-3-2-2-2-5-1-3-1-1-1-1s0 2-1 0c-3-6-9-14-10-19l-2-3c-3-6-2-14 2-19 1-2 1-2 3-2-1-2-1-2 2-4s10-2 14-2c2 2-2 0 3 2 8 4 8 3 8 9v9c0 1-2 7-4 8zM17 48l1 4-1-4zm4 18h2c1-8 1-12 5-21l9-17 3-11c1-5-2-10-6-13l-4-2c-3-2-9-1-13-1-1 1 1 1-4 2S-1 14 1 23c4 13 2 6 8 18 2 4 8 12 11 20l1 5zm-7-47l1 2c1-3 0-8 7-8l2 1 1 5c0 4-1 6-5 7-3 0-4-1-5-2l-1-5zm5-8h-3l-4 9c0 5 4 8 9 7 10-1 7-19-2-16zm0 31l2-1 1-1 1-1v4c1-1 2-5 1-7l-2 2c0-3 2-3 2-5v-1c-2 0-1 1-2 2l-3 8zM8 34l-2-8 1-7 1-2c-3-1-4 7-1 13l1 4zm11-15l1-2 1-3c-2 1-3 4-2 5zm4 27z"/></svg></svg></g></g><g id="h"><g transform="translate(229 23)"><svg width="400" height="400"><svg viewBox="0 0 500 500"><path d="M25 35c-4-3-12-7-13-9l-2-1-5-5c3-1 10 0 13 1 2 2 1 0 3 1l4 4c1 2 2 0 3 4v4l-7-5-3-1 6 4 4 5-3-2zm-7-16c1-3 3-3 5-6v-1l4 4 4 4-5 4-8-5zm8-6l-3-2V3c2 0 6 5 7 5l6 6 2 2 3 1h-4l-1 1-1 1-4-2c-2-3-4-3-5-4zm-9 5l-7-1-7 2v2l10 8 2 1-7 9-5 7-2 2 1 1 3-4 11-14 4 3 3 1 2 1 2 2c2 1 0 2 3 2v-9c-1-5-2-3 2-9 2-2 4-3 7-3l2 1 2-1 2 1c0-2-1-2-2-3l-3-3-6-4-6-5c-1-1-1-2-3-2l-3-2-1 10-4 7zm9 10s-6-4-7-3l4 2 1 1h2zm2-9l-2-2-2-1 4 3zM27 9l1 1 3 2-4-3z"/></svg></svg></g></g><g id="i"><g transform="rotate(1 2206 -3339)"><svg width="405" height="405"><svg viewBox="0 0 500 500"><path d="M82 16H48l-27-1h-1l-1-3v3h-4V4l-1 2v9h-4l1-12 1 2-1 9 1 1v-1c0-1 0 1 0 0v-2l1-3 1-5h2l7-1h30l15 2 12 2c2 1 2 2 2 4v5zM15 33h4c2 0 3 1 5 3s3 5 3 9l-1 6c-2 4-7 7-12 7-4 0-7-1-10-4-5-6-1-23 12-23l-1 2zm16 8l1 3c0 6-1 6-5 6l1-4v-4l3-1zm-3 18c1 1 0 8-1 8h-4l-4-1v-4l1-3c0-3 5-2 7-1l1 1zm48-30v33c0 6 1 10-4 10l-14 1-6-1-28-2h-6l-6-2v-8l6-1c0 7-3 9 5 10 6 1 5 1 6-5s4-7-5-8l3-5h4c3-1 2-4 3-7l-1-4h-5s-2-6-6-8c-8-4-10 1-10-3l1-2V17l4-1c3 1 7 2 11 1 12 0 23 2 32 0h16v12zm-1 45v-1l2-4V17h5c2 0 1-8 1-10-1-2-5-3-8-3L53 2 42 1h-6L20 2c-6 1-9-1-11 1v13l3 1v7l-1 7-1 1c-5 2-8 7-9 13 0 3 0 7 2 10l7 4v10c4 2 10 3 15 3l17 1 16 1h17zm-6-50v4l-1 4h-9l2-8h8zm1 9c0-3 2-10-1-11h-9l-1 1v1c0 3-3 9 1 10l5-1h5zm-31 8c10 1 7 4 7 9-8 0-10 2-7-9zm7 10l2-4c1-7-2-6-6-7h-4l-2 10 5 2 5-1zm20 0c-10 0-8 1-7-8 3-1 6 0 7 1v7zm-7-10l-2 9c0 2 1 3 3 3 8-1 6 0 7-4 3-8-2-7-5-8h-3zm-1 25l1-6 5-1 3 2v5h-9zm1-8c-1 1-3 8-2 9l4 1h4l1 1c2-1 1-2 2-4 0-2 2-6-4-7h-5zm-13 8c-2 0-7 2-8 0v-6l1-1c3 0 5 0 8 2l-1 5zm-9-9v3c0 2-2 5 0 8h9l1 1V59l-4-1h-3l-3-1zm10-27c-8 1-8 1-7-7 10 0 8 2 7 7zm2-7l-4-1-5-1-1 5c0 2-1 7 3 6 8-1 6 1 7-4v-5zm-26-1c2 0 5 0 6 2l1 3-2 2c-8 2-6-1-5-7zm6 9c1-1 2-7 1-9l-3-1h-3l-2-1v5l-1 5 3 1h5zm-8 18c1-4-2-2-7-2l1-10c1-2-1-2-1 0l-1 11c0 2 3-1 8 1zm53-15l-1 1v6l-1 6 1-3 1-10zM63 6l-2-1-8 1h-1 11zm-2 2h-4l-4 1 8-1zm-43 5v-2l-1-2v5l1-1zm22 0c0-2-1-1-3-1l-4 1h7zm33 46l-1 3v3l1-6zM42 44h-1s-2 2-1 3v-1l2-2zm1-19s-1-1-2 1v2c2-1 1 0 1-2l1-1zm1 0l-1 2v1c2 0 2-2 1-3zm-18-1l-2 2v1l2-3zm38 2l-1 1v2l1-3zM45 13c0-2-2-1-2-1l2 1zm28 38z"/></svg></svg></g></g><g id="j"><g transform="rotate(-8 523 42)"><svg width="229.7" height="229.7" viewBox="0 0 230 230"><svg viewBox="0 0 500 500"><path d="M95 37l5-1h4l6 7H96l-1-6zM50 53h-6c-6 1-11 2-17 1l-10-1-1-1-1-5-1-4-1-5-1-4-4-9-3-7 1-1h1l3-1h6l3 4 2 5c4 8 1 9 13 8l22-3h2l7-1c10-1 24-1 34 4l2 1-5 1h-4l1 3c1 4-1 8 4 9h15l2 4-11 1-6 1c-5 0-14-1-17 1l-4 7-5 10-8 14-5 5h-3l2-9 1-9 1-10 1-4v-4l-2-1a14 14 0 00-3 0h-5zm19-30l1 2-12 1c0-8-2-14-3-21 6 0 4-2 9 8l5 10zM52 2v5l1 6c0 1 2 13 1 14l-13 1c-1 1-12 3-13 2l-3-6-2-3-1-3-2-3c-3-3-6-3-11-2-9 2-9 1-7 8l4 10 1 3 2 7 2 7c2 4 0 7 4 8l6 1h26l9-1-1 10-3 17v5l-1 4c1 1 1 2 3 1 4-1 6 2 10-3l3-5c2-1 2-3 4-6l3-5 6-12 3-6h10l9-1c5-1 14 0 18-2l-1-3-9-14-2-2-6-4-11-4-17-1-2-4-2-4-7-11c-3-4-1-6-11-4zM35 41l6 1h3c2-5-14-6-9-1zm14-3l1 2c2 1 6 1 8-1 0-2-3-3-4-3l-5 2zm18 1c9 1 7-2 4-3l-7-1c-1 2 1 3 3 4zm12-4c1 2 1 2 4 2 8 0 0-5-3-3l-1 1zM64 69c2-1 1-6 2-11l-1-3-1 4v10zM14 28l-1-3v-4l-1-3-1 1 1 2 1 9c1 0 2 0 1-2zm5 1zm-4-1c2 0 1-1 1-3h-1v3zm53 35v-3c0 1-2 3 0 3z"/></svg></svg></g></g><g id="k"><g transform="translate(181 -76)"><svg width="400" height="400"><svg viewBox="0 0 500 500"><path d="M37 2l-2 2c2 0 3-2 5-1h2l4 5v8l-4 5-1-1s-13 2-12-7c0-5 3-10 8-11zm3 65c3 4 2 12-5 13v-3l-1 3c-7-1-3-9 1-14l1 1h2c-1 1-6 4-6 6l2-2 1-1 2-1v1l-3 3-2 3 2-1-1 2 4-4c-1-2-3 1 1-3l1-2 1-1zm-30 2c4 4 2 8 0 9l-3 1c-3 0-2-1-2-1l2-4-1 2-1 1c0-4 3-5 3-6-2 0-4 5-4 6H3v1l1-6c2-3 3-2 5-2l1-1zm58 2v1h1c4 0 2 9-3 10-8 1-6-9-1-11v2c-1 0-5 3-4 6 2-2 0-2 3-5l2-1 2-2zm-1-2c-2 1-6 2-7 6-3 8 5 10 9 6 2-2 5-6 3-9l-2-2-2-1 1-18v-6l1-1c0-3 0-1-6-1H37c-2-4 2-15 2-20 5-1 9-6 9-11 0-6-6-14-13-10-6 3-10 12-6 16 1 2 4 3 7 3l-1 11v11h-4L8 44l-2 1c-2 0 0 3-1 5v17c-1 2-4 3-4 8 0 2 0 3 2 4 2 2 8 3 10-4 1-4 0-8-4-7l-2-1V46h7l14-1h7v19l1 1h-2c-2 1-1 1-1 2l-1 1c-2 3-4 8-2 11 1 2 5 3 7 2 5-3 8-10 4-14l-2-1-2-2V45h7l7-1h16v25zM43 8l-2-2-1 1 2 2 1 3 1-2-1-2zm-7 0c-2-1-4 4-3 6l1-3 2-3zm31 66l-2 2-2 3 4-5zM43 13h-1v1c1 0 2 0 1-1zm-6 1c-1-1-1 0-1 1l1-1z"/></svg></svg></g></g><g id="l"><g transform="rotate(9 808 1613)"><svg width="235.1" height="235.1" viewBox="0 0 235 235"><svg viewBox="0 0 500 500"><path d="M8 53l1-3V16l5 3h1l17 14v1h1l2 2 3 2v1l2 1-2 3-4 5a3 3 0 01-1 0l-1 3c4-2 9-9 11-8s1 1-1 5l-3 3-4 4-5 6h-1l-5 5-1 2-1 1-2 2-1 2c-2 5-6 4-8 6l-4 3 1-29zm120 8v-3 6-3zM11 85c1-3 6-5 7-6l3-3 26-28c3-2 3 0 7 3l1 1c4 3 4 2 5 5 5 0 5 3 9-1l10-8c2-2 2-1 2-3h1c1 3 3 4 5 5l2 3 9 10 4 4 9 10 1 1h1l4 5 1 2c-5 0 0-1-4-4-3-1-7-7-12-11l-2-1 7 8 6 6 1 2-5 1H64l-12-1-31 2h-3l-6-2h-1zm88-17c1 0-1-1 0 0 0 1 0 0 0 0zM85 42l1-1 37-30 2 19v31c1 4 1 15-1 18l-1 2-3-3c-6-4-10-10-14-14L91 50l-2-3-1-1-3-4zm43 11l-1-13V25l-1-8c0-4-2-7 1-8l1 2c2 7 2 14 1 20v16l-1 5v1zm-59 0c-5-1-11-5-15-8a24 24 0 00-1-1L42 34l-9-7-1-1-11-8-4-2-3-3-3-3 14-2 7 1c15-2 20-3 35-3h7l7-1h6l7-1 11 1 11 1H82c-3 0-3 0-3 2h4l15 1c6 1 15 0 22-1l-6 6-3 3-3 3-17 13-3 3-2 1-2 1-1 1-2 2-1 1-5 5-1 1-5 5zM2 8l1 2 2 1v1L4 23v11L2 56c-1 7-2 26 3 29l2 1 16 3h3l8-1 17-1 11 1h13c7 0 31 2 38 1 6-2 13-2 16-6l2-6V32c2-5 1-9 1-13s0-9-2-12c-3-3-5-5-10-5l-8-1H95l-7 1C78 1 62 3 52 3H26L2 8zm117 27c1 11-1 12-1 16v4c4 3 2-13 2-14l-1-6zM41 75c2 0 2-3 1-5v-3l-1-1c-1 0-1-1-2 1l1 3 1 5zm53-62c5-1 3 2 12 0l-1-1H94v1zm2 62l1 1 6 5c1-2-1-3-4-5l-2-1h-1zm-47 1v-5l-1-2-2-1 2 7 1 1zM39 17c1 0 2 0 3-2v-2l-3 1v3zm18-4l2-3c-3-1-3-1-4 2l2 1zm36 63s-1 1 1 2l3 1c0-1-3-4-4-3zM47 15h1l2-2-2-2c-2 2-1 2-1 4zm-1 8c3-1 3-1 3-3-3 0-2 0-3 3z"/></svg></svg></g></g><g id="m"><g transform="rotate(-2 -953 -2389)"><svg width="186" height="186"><svg viewBox="0 0 500 500"><path d="M7 62c1-7 8-19 13-25l2-2 3-4 1-1 2-3 3-2 7-7c3-3 6-5 10-6l6-2 12-3c-1 3-4 2-7 3-4 2-8 3-11 6l-2 1v1c-11 9-11 8-20 20l-1 3 1-1 1-1 8-9 1-2 2-1 3-2v-1l2-2 1-1 18-10c5-1 10-3 16-3l9 1 6 1 18 1 9 1 3 1 8 2 6 3 2 1 1 1c4 4 11 19 12 25 0 13 0 16-4 28-4 8-8 12-14 19l-5 4-2 2c-8 7-13 8-23 10-7 1-12 4-18 4h-4l-3 1-2 4c-2 4-8 8-11 10l-9 8-2 2-10 8c0-4 0-5 2-8l2-7 1-3c2-3 4-7 4-10l-2-1-1-1h-6l-9-3h-2l-2-1h-1l-12-6-2-2-5-4-4-7c-3-7-2-12-2-18 0-3-1 0-1-2l1-3 1-7zM1 76c0 7 1 12 4 18 2 5 4 9 8 12 8 7 4 5 14 9h2l8 3 10 1-4 16-1 9c-1 4-3 3-1 7l4-2 22-17c4-2 7-6 10-10 7-6 5-5 14-7 4-1 8-3 13-3h3c8-3 16-7 23-12l4-4 1-1h1v-1l11-13 8-16 2-17c0-4 1-9-1-14-1-4-5-9-8-13l-1-1-8-7h-1a14 14 0 010-1l-2-1c-5-3-10-4-11-4-3-3 2-2-8-3L88 1h-5c-7 0-20 1-26 3l-6 2-6 3-4 3-3 1-1 2a6 6 0 01-1 0l-8 8-6 6-2 2-9 14-2 3-1 1v2c-4 7-7 16-7 25zm94-21c-4-2 0-3-10-2-7 0-8 5-8 10l1 3v1c3 4 6 2 7 2 4-1 5 0 8-3 3-4 2-6 2-11zm-44-3c-1 0-3 0-5 3-2 2-6 11 5 14 8 1 13-13 7-17l-3-1h-3l-1 1zm77 10v-6l-2-1c-3-2-7-2-9-1-6 3-6 12-2 15s4 3 8 1l4-4 1-4zM87 15l1 2h3l7 2 12 3-1 1h-6l1 2c8-3 0 0 9 0 3 0 7 2 9 1-1-2 0-2-3-2l-26-8h3l5 1 10 1-2-1c-5-2-6-1-9-1-2-1-12-3-13-1zm40 78l2-2 4-3 1-1 12-16c3-7 4-7-1-7l-1 5-1 3h-1l-5 9-2 3-7 7-1 2zM48 77c4 1 11 3 13-1l1-2-3-1c-2 1-4 6-11 1l-1-1c-4-2-4 1-5 1l6 3zm87-51v-3l-11-3-13-3 3 2c2 1 1-1 8 2h1l3 1 3 1 3 2 3 1zm-95 7l10-8c2-1 2 0 2-3-2 0-2 0-3 2h-1l-1 2c-2 1-6 3-7 7zm51 46c-2-3 0-2-9-2 0 3 0 3 3 3l3-1h3zm4-5h-1l4 2-1-3-2 1zm12-45l7 1c-2-2-3-1-7-1zm-68 5c1-1 1-1 0 0z"/></svg></svg></g></g><g id="n"><g transform="rotate(-1 11080 -19593)"><svg width="158" height="158"><svg viewBox="0 0 500 500"><path d="M146 230zm-5-1s-1 0 0 0zm5-1h1s-1 2-1 0zm-6-2h1s-1 2-1 0zm1-2zm4-4c2 2 1 4 1 7l-1-7zm-2-12c0-3 0-3 2-5v15a43 43 0 010-1l-2-9zm52-11c0-3 2-3 2-8 2 1 0-1 1 2 1 4-2 15-2 15l-1-9zm-51 3l-2-11 1 3v3c1 4 2 3 1 5zm38-4zm-10 18c-2-2-6-8 0-14l11-9c-1 3-9 10-11 12v3l5-5 1-2h1l1-2 2-1-3 11-7 7zm12-23h-1 1zm-42-3zm37 27l1-6c2-15 8-17 11-21 1-1 2-3 6-4l-4 14 1 13c2 4 0 1 0 6-4 1-13 3-16 1s0-3 0-3h1zm18-35zm-51-21h-1c0-1 1-2 2-1h-1v1zm1-3zm1-1h-1 1zm10-21zm2-2v-2l1-3c3-7 2-7 5-8l-5 10-1 3zm-30-9v2l-1-3 1 1zm-6-12l-5-10c4 0 5 5 7 10l2 8 1 3-5-11zm59 9c3-2 8 0 10-1-1 2-2 1-5 2-2 1-3 1-5-1zm28-13zm2 0l1-1-1 1zm-38-7c1-2 3-7 5-8l-2 4-1 2-8 17-1 1-1-3 8-13zm66-74l3-1 12-2-9 10-19 33-4 10v2l-4 7-4 9v1l-9 13c-3 4-3 3-7 6l-2 2-20 2-4-1h-5l3-7c7-12 12-24 22-35l15-17 1-4c-2-2-4 4-5 5l-14 14-2 2-9 10-1 1-9 12c-3 3-2 3-1 3 1 2 3-3 5-5 0 3-2 5-3 7l-2 2-3 4-1-1-2-7-1-8c-2-7 1-12 2-18l3-8c1-4 4-7 7-9l5-5h2l1-1c1 0 5-5 15-11l3-2c6-4 6-3 11-5 4-3 10-5 15-6l15-2zm-66 69zm1-2zm-67-2l2 2h-6l1-2h3zm73-1c0-1 1-6 2-4l-1 2-1 2zm-68 0l7 9c-3 0-2 0-3-3-1-2-6-5-6-9l1 1v1l1 1zm71-6zM89 66h1-1zm149-10v-1 1zm-121 0zm121-2s0 1 0 0zM112 41l1 1v1l-1-2zM98 78c1 3 7 4 8 8l-7 2h-1l-4 1-2 1h-5l-17-6-6-3a6 6 0 00-1 0l-1-1-11-7-5-11-21-38-10-12c-2-2-5-3-5-6l4 1h4l7 1h5l4 1 4 1 3 1 15 4 14 4h1c-1 4-3 11-1 15 1 1 2 2 2 0V19c11 3 23 5 31 14l4 5 2 5 4 7c3 6 0 3 0 7l1 2-2 15c-1 2-1 3-3 3L98 65c-3-3-21-19-25-20l-2 3c-1-2-1-3-2-1l-1 1 1 1 3 3 17 15 3 1 6 4c1 2-1 1 1 2l-1 4zM1 3l1 2 23 25c5 7 8 15 11 22l2 7c3-1 2-3 7 9l2 4 1 1 5 6c2 3 4 4 7 5 8 3 22 8 29 9l11 2v3c3-2 1-3 5-3 3 1 4 0 6-1l9 15 7 18 3 11c2 8 4 10 6 21 1 3-2 3 0 10l1 3 1 6v7c1 3 2 5 1 7s-2 2-2 6l1 7v52l-1 5-1 7c2-1 1 1 2-2l2-24c2 5 2 2 4 3 2 2-2 19-2 22v18l1-1 1-19c2 1 1 2 1 4 3 0 4-1 4-4 2 0 4 2 5-1s-2 0 0-4l5-10 1-3 3-6 1-1 7-14 4-6c3 1 4 3 8 3 5 0 7-1 10-3l3-2 7-8h-3l1-1v-1c2-8-1-19 1-27l2-3c-1-2 0-1-2-1 1-3 2-4 0-6l-3 1-1 2-15 13-3 2-2 1-12 11c-1 3 0 6 1 9l2 5h1l1 2-1 2-2 3-19 39-1 2 2-28-1-21v-3l-3-22-1-6-1-8c-2-12 1-6 2-12l-4 3 3-7c1 2 0 2 2 3 2-1 1-3 4-7l2-3 1-7 3-6v7c1-3 0-4 2-6-2-4 0 2-2-2l1-1 8-14v-1l1-1v-1l2-2c5 1 5 6 16 5 9 0 10-4 17-5-1 3-2 0-1 3 3 0 3-1 4-4l3-4 4-3 4-4 5-6 1-3 2-2 2-2 2-5c-2 0-7 8-9 11l-1 1-4 4c1-4 5-8 7-12l5-12 1-1 11-22 6-8v-1h-2l-3 4c1-6 9-14 13-18l3-4 1-2 4-6h4c1-2 2-5 0-6h-9c-9 3-19 3-28 7-8 4-26 8-32 13l-1 1h-1l-15 12c-5 4-3-2-11 9l-4 6v1c-3 6-4 8-4 15 0 10-2 9 0 21 1 8 6 9 2 17l-18 39-2 4c-1-8-5-15-6-23l-3-7h2l-4-16-6-17-8-13-1-1c-2-3-1-10 0-12 2-2 3 1 3-1v-5l1-4V51c-1-7-5-15-10-21-3-3-8-4-12-6-5-4-12-6-18-7l-5-1-5-1-5-2-4-1-10-2c-6-1-10-4-15-4L16 2l-2-1h-2c-3 1 0 2-7 1L1 3z"/><path d="M191 115l1 5 1-3 1-10c0-11 2-11-1-12v1c-2 4-1 10-1 14l-1 5zM61 84l-1-2c-3-4-3-10-3-15 0-4 1-2-1-3-2 1-2-1-1 6 0 3 1 12 4 14h2zm136 30l1-2 2-12 2-6-2-2-2 5-2 14 1 3zM98 61c2-1 1 1 2-2v-4l-1-9c-2-3-3-5-6-5 0 2 0 0 1 1l1 2 2 3v2c1 1 1-1 1 5v7zm97 10l1-4 1-1c1-2 4-5 4-10-3 0-3 1-4 5l-3 4c-1 5-2 5 1 6zM86 49h1c1-4 2-9 1-13 0-3 1-1-2-2v15zm-21-4v-4c0-2 2-5 0-8 0-3 0-2-3-2l1 7v4c0 4 0 3 2 3zm16 2c-2-6-1-5-1-11 1-2 1-2-2-3v8c-1 6 0 6 3 6zm-8 34l2 7 1 2c3 4 3 5 7 5-1-4-1-2-3-4l-1-2-1-2-5-6zm130 24c2-2 1-2 1-5l2-4c2-8 2-7-1-7l-3 12 1 4zM67 87l-1-3c-3-4-2-4-3-7l-1-2h-2c1 2 2 8 4 10 1 2 2 2 3 2zm145 5c0-6 4-9 4-16-3 0-1 0-2 3l-4 11c0 4 0 2 2 2zm-7-30l1-3 1-1 3-8v-1c-3 1-1 0-3 4l-3 8c0 3 0 1 1 1zm-20 61c3-1 1-1 1-5l-2 2 1 3z"/></svg></svg></g></g><g id="o"><g transform="rotate(3 925 5439)"><svg width="150.2" height="150.2" viewBox="0 0 150 150"><svg viewBox="0 0 500 500"><path d="M6 291c2 0 2 1 2-3v-2c-2-5-1-6-1-11 0-4 0-16 2-19l1 21c0 6-2 12-1 18l2 3c1 2-1 1 2 2 2-3 0-36 0-42l-1-43c-2-24 2-59 5-82l37-1c11 1 51 6 56 3-10 1-20-1-31-2l-3-1 20-1 7-1-14-1-12-1h-1c5-2 50 1 61 0 2-3 6-1 13-1v3h15l15 2c2-2 0-2 2-2l4-1c-2-2-6-1-8-2-3-1-3-3-5-6-2-4 1-1-4-5l-4-7c-3-1-9-11-12-14l-13-14c1-4 7-10 10-11 4-2 7-8 10-11l5-5 2-3 10-11v-1l5-5c-8 2-16 11-21 17l-2 2c-1 2-1 3-4 4l4-5v-1l1-1 1-1 4-5c10-13 11-8 17-17h-3v-3l-21-1-1-2c-8 2-26 0-36-1-23-2-49-4-72 0-6 1-30 5-34 4v-5c2-2 3-2 4-5C21 9 15-1 9 0 7 0 2 6 2 10c0 5 4 7 9 8-5 14-4 41-4 56l1 14-2 44-6-1c1 3 3 2 6 2l1 41c1 13 0 26-1 39l1 41c0 8-5 31-1 37zM138 72c1-4 4-3 7-9 1-3 6-6 8-9l4-4 2-1c-2 3-18 22-21 23zm0 10c3 1 2 0 3 2l2 2 4 5c3 3 6 5 8 10l-3-2c-3-3-13-14-14-17zm0-3l6-9 7-6-5 7-4 4-4 4zm-1 2c-2 0-1 0-2-2 4 1 1 0 2 2zm-16-59H98c-3-1-5-2-6 0l2 1 2 1h1-20l-7-1-28 1c4-4 35-4 39-4l38 1 2 1zm-38 3c-5 4-17 3-23 1 1-1-1-1 6-1h17zm4 106H35l-14 1-2-1-2-1h1v-1h1l2-1a58 58 0 013-1l18-1 8 1c5 1 34 2 37 4zM61 28c-2 2-7 2-9 2l-10 1c-5 1-14 1-15 6l12-3c15-4 31-4 46-4v3c17-2 34-1 51-2l17-1h-33l-33 1 3-2v-1l4-1h26l1 1c12-3 18-1 28-1l14-1 15 1-6 5-18 16-11 12c-4 5-6 8-8 14l-7-5c1 4 6 4 6 9-3-1-3-2-5-4-1-2-2-4-5-4 5 10 4 6 9 12 3 3 1 1 1 5 3 0 2-3 6 1l13 16c4 6 2 4 4 4 3 1 2 0 6 4l4 6c3 3 3 0 5 5l-10-1c-6 0-2-1-9-2-5 0-14 0-19-2-5-1-4 0-8 1l-9 1-10 2c-3-1-1-2-3-1h-1l-3 1-42-1-40 2 1-16c-4 2 1 10-4 15l-1 2c-1-1-3 1-1-6 2-9 1-41 1-51l1 1 5 23 1 4 4 14c2 5 2 9 5 13l-6-20-5-21c-4-17-5-30-5-47l2-1h1v-5c7 1 27-4 44 0zM13 131c-1-1-2-1 0-2v2zm1-120c-3-1-3 0-4-3s0-3 2-4c2 3 2 3 2 7zm-3 105c0-6-3-54 0-58 2 4 2 54 0 58zm4 17v1l-4 49v-40c0-12 0-10 4-10zm13-37l-3-14-2-15-2-31c-2 1-2 2-1 6l2 24c1 13 1 20 6 30zm124-62l-33 2h25l8-2zM26 43v-7l-1-3c-1 3-1 8 1 10z"/></svg></svg></g></g><g id="p"><g transform="rotate(-3 1022 -7539)"><svg width="156.1" height="156.1" viewBox="0 0 156 156"><svg viewBox="0 0 500 500"><path d="M192 39c-4-2-7-6-10-9-4-3-8-5-10-9 5 1 8 5 11 8 4 3 7 4 9 10zM120 7c5 2 5-6 32 7 9 4 43 32 47 38 4 5 8 25 8 34-3-1-6-4-6-6l-5-1s-6-5-5 2c2 6 6 3 9 10 7 17 3 4 10 13 7-5 0-3 16-15l7-7c2-2 3-3 5-3 5-3 3 1 5-3-6-8-20 9-26 11 0-10-4-25-10-33-13-16-12-31-44-46-7-4-29-8-38-7-5 6-4 0-5 6zM3 97c2 2 2 16 2 20 1 8 4 10 3 18-7-6-7-33-5-38zm74-84l-2 1h-7c1-1 1-2 5-2 6-1 3 0 4 1zM45 6c7-3 0-2 15-1 4 0 5 0 8 2l-8 6c-14 9-9 3-25 20-9 9-19 22-25 34-3 6-5 15-7 22-5 12-5 37 3 48l6 9c2 4 5 6 8 3-3-2-4-2-5-7-3-7-6-27-7-34-3-18 3-31 9-44s25-35 39-42c9-5 9-4 21-6 0 11-12 29-12 35 4-3 4 0 7-8 4-13 12-22 11-36-5-3-14-6-20-7-8-1-20-1-18 6zm11 161l12-3 15-2c-6-4-2 1-6-5l-28 6c-10 3-2 13 1 20 1 6 2 12 5 15 6-6-1-13-2-25 6 1 6 4 13 5l-1 4c0 2 2 1 4 1 24-4 38 7 76-8 16-6 26-12 36-24l5-8c4-4 8-9 7-16-3 0-18 22-21 26-7 9-18 15-31 19-18 6-18 5-33 5l-11 1c-4 1-19-1-23-1l-15-5c-3-3-2-1-3-5z"/></svg></svg></g></g><g id="q"><g transform="rotate(5 1861 -715)"><svg width="317.4" height="317.4" viewBox="0 0 317 317"><svg viewBox="0 0 500 500"><path d="M13 104l21-1 10 1c5 0 6-1 9-2l-5 22-2 11c-2 7-1 3-4 9l-17 1c-5 0-6-7-7-11 0-4 2-2 0-8l-2-7-3-15zm42-31h4v8c0 6 1 0 1 5v7c0 5-8 8-12 9l-14-1c-2-1 2-5-1-7l-1 7h-6c-6 1-14 3-21 0-1-3-2-18-1-24 5-3 6 1 7-3H4V60c0-4-1-9 2-14l23-1c0 3-1 8 2 9v-9h15c12 0 17-7 14 24l-1 1c-2 1-7 0-5 3h1zM14 44c0-7 5-34 8-38 2-2 16-3 21-2 3 0 4 3 5 6l1 10 2-2 1-1 1 12v13c-8 0-2 0-7 1-2 1-9-1-12-1l-20 2zm-3 0c-5 0-6 0-9 4v24c0 6-2 10-1 16l1 8c0 6 1 7 6 8 4 1 2 2 4 12l3 10c1 6 2 18 6 20 3 2 6 0 11 0 3 0 10 1 12-1 8-9 9-41 14-45l3-3c2-3 1-20 1-25 0-9-1-3 1-12 1-2 0-9-1-11-1-4-3-6-7-7 0-10 0-20-3-29C49 0 47 1 33 1c-5 0-10 1-12 4l-5 12-5 27zm28 19c-2-1-3 4-7 8-4-1-6-5-8-7s-7-6-10-5l6 8c3 2 7 4 8 7 1 2 1 4 4 3 4 0 1-4 3-7l4-5v-2zM23 22c2-1 1-7 3-11V8c-2 0-1 1-2 6l-1 8zm-3 99l-2-13c0-3-1-2-2-3l2 8 2 8zm39-58c0-1 1-14-1-15l1 15zM46 27l-1-10-1 5c0 4 0 3 2 5zm9 58l1-5-1-1c-1 0-2 5 0 6zm-30 28v-4l-2-3c0 2 0 6 2 7zm26-28c2 0 2 2 2-2l-1-4-1 6z"/></svg></svg></g></g><g id="r"><g transform="translate(347 116)"><svg width="270" height="270"><svg viewBox="0 0 500 500"><path d="M43 51l3-6v4c0 3 0 1-3 2zm-1 0c-2-1-3-1-2-4l2-2 1-1-1 7zM15 28c2 1 1-2 1 2 0 3-1 4-3 5l2-7zm-6 7c-2-2 0-2 1-6v-2c1-2 1-2 3-2v3l1-1 1-2v2l-3 9c-1-3 0-5 1-8l-1 2c-2 4 0 4-3 5zm66-22c0-2 3-7 5-7 2 3-2 5-1 8l1-1 1-1-1-1 2-3c1 1 0 6-2 7h-4l1-3-2 1zm6-2c-1 1 0 0 0 0zm-4 1zm-3-2l1-4 3-1-4 5zm-3 4L60 28c-3 4-10 11-11 14-3-1-2-2-7-1l-3 2-1 1-1 1c-5-5-13-9-18-12l-1-6v-5l-1 1-1 1c-3-2-4-3-7-1-9 9-1 17 5 15l4-3c7 2 14 11 19 12 1 5 0 4 3 7 5 1 6 0 8-3l1-3v-4c0-2 0 1 3-3l9-11 8-10 2-4c4 0 8 5 11-1C89 5 77-3 72 3c-4 4-4 9-2 10a7 7 0 010 1h1zm-1 31l1-1 2-3c2-1 3-1 4-4l-4 3-2 2-1 3zm-2 0l2-10 9 1c5 3 2 9 2 18l-1 24-1 8-1 7c-1 4 3 10-6 10-7-1-6-16-6-22V64l2-17c2-1 1 1 2-2h-2zm-1-8l-2 1-1 20 1 10-1 20c-1 5 0 6 1 10s1 5 4 7l10-1c2-1 5-21 3-24-1-4 5-38-1-46-2 1-5 0-8-1-6-1-4 0-6 4zM8 52c3-1 8 1 9 3v19l-1 7c0 7 0 20-3 21-2 2-5 1-7 0s-2-2-3-5l3-31c1-7-3-11 2-14zm0-2c-2 1-3 1-4 5-2 5-4 39-3 44 1 3 2 5 4 5 4 1 5 2 8 1 4-2 6 0 6-13v-9l-1-9c0-12 5-20-3-23-2-1-5-2-7-1zm28 24c1-5 0-5 6-4 3 0 8 0 7 7l-1 2c-2 6 1 10-2 20-1 2-1 2-3 2-2 1-10 1-8-4 5-10 10-11 7-13-2 2-5 9-7 10l1-20zm0-6c-3 1-2 7-2 11l-2 12c0 6-2 12 7 13 4 1 4 0 7-1s3 0 4-9V80c0-4 1-9-2-11-2-1-10-2-12-1zm4 29c1-5 3-4 4-8-2 0-1 1-2 2l-3 4c-1 4 2 4 5 2h-4zm34-29l1-7c-2-1-2 0-1 2v5zm-3-19c2-4 1-3 4-5 1-2 4-3 4-5l-7 7-1 1v2zM11 87c-2 0-2 3-3 5l-2 5 5-10zm62-36l5-5-3 2-2 3zm3 21c-1-2 0-1-2-1l2 1z"/></svg></svg></g></g></defs><use width="100%" height="100%" transform="translate(-72)" xlink:href="#a"/><use width="100%" height="100%" transform="translate(-72)" xlink:href="#b"/><use width="100%" height="100%" transform="translate(-72)" xlink:href="#c"/><use width="100%" height="100%" transform="translate(-72)" xlink:href="#d"/><use width="100%" height="100%" transform="translate(428)" xlink:href="#e"/><use width="100%" height="100%" transform="translate(-72)" xlink:href="#f"/><use width="100%" height="100%" transform="translate(428)" xlink:href="#g"/><use width="100%" height="100%" transform="translate(-72)" xlink:href="#h"/><use width="100%" height="100%" transform="translate(428)" xlink:href="#i"/><use width="100%" height="100%" transform="translate(428 270)" xlink:href="#i"/><use width="100%" height="100%" transform="translate(428)" xlink:href="#j"/><use width="100%" height="100%" transform="translate(-72 270)" xlink:href="#k"/><use width="100%" height="100%" transform="translate(-72 270)" xlink:href="#l"/><use width="100%" height="100%" transform="translate(-72)" xlink:href="#m"/><use width="100%" height="100%" transform="translate(-72 270)" xlink:href="#m"/><use width="100%" height="100%" transform="translate(-72 -270)" xlink:href="#n"/><use width="100%" height="100%" transform="translate(-72)" xlink:href="#n"/><use width="100%" height="100%" transform="translate(-72)" xlink:href="#o"/><use width="100%" height="100%" transform="translate(-72 270)" xlink:href="#o"/><use width="100%" height="100%" transform="translate(-72)" xlink:href="#p"/><use width="100%" height="100%" transform="translate(428 270)" xlink:href="#q"/><use width="100%" height="100%" transform="translate(-72)" xlink:href="#r"/></svg>